<?xml version="1.0" encoding="utf-8"?>
<!-- Generator: Adobe Illustrator 19.1.0, SVG Export Plug-In . SVG Version: 6.00 Build 0)  -->
<svg version="1.1" id="Layer_1" xmlns="http://www.w3.org/2000/svg" xmlns:xlink="http://www.w3.org/1999/xlink" x="0px" y="0px"
	 viewBox="0 0 891.5 622" style="enable-background:new 0 0 891.5 622;" xml:space="preserve">
<style type="text/css">
	.st0{fill:#F7F7F7;}
</style>
<g>
	<path class="st0" d="M3.6,81.7l34.1-30.6c1.7-1.6,3.5-3.3,5.2-5.3c1.7-2,2.6-4.3,2.6-6.9c0-3-1.1-5.3-3.2-7
		c-2.2-1.7-4.7-2.5-7.6-2.5c-3.5,0-6.2,1.1-8.1,3.2c-1.9,2.2-3,4.8-3.3,7.9L4.8,39C5,34.5,6,30.6,7.6,27.2c1.7-3.3,3.8-6.1,6.6-8.4
		s5.9-3.9,9.6-5c3.7-1.1,7.7-1.7,12-1.7c4,0,7.7,0.6,11.2,1.7c3.5,1.1,6.5,2.8,9.1,5c2.6,2.2,4.6,4.9,6,8.2
		c1.4,3.3,2.2,7.2,2.2,11.5c0,2.8-0.3,5.4-0.9,7.6c-0.6,2.3-1.4,4.3-2.4,6.2c-1,1.9-2.3,3.6-3.7,5.1c-1.4,1.6-2.9,3.1-4.6,4.6
		L26,85.1h38.9v16.4H3.6V81.7z"/>
	<path class="st0" d="M75.1,57.5c0-5.2,0.5-10.5,1.4-15.9c0.9-5.4,2.6-10.2,5.1-14.6c2.4-4.4,5.8-8,10-10.7
		c4.2-2.8,9.6-4.2,16.1-4.2c6.5,0,11.9,1.4,16.1,4.2c4.2,2.8,7.5,6.3,10,10.7c2.4,4.4,4.1,9.3,5.1,14.6c0.9,5.4,1.4,10.7,1.4,15.9
		s-0.5,10.5-1.4,15.9c-1,5.4-2.6,10.3-5.1,14.6c-2.4,4.4-5.8,8-10,10.7c-4.2,2.8-9.6,4.2-16.1,4.2c-6.5,0-11.9-1.4-16.1-4.2
		S84,92.4,81.6,88c-2.4-4.4-4.1-9.3-5.1-14.6C75.5,68,75.1,62.7,75.1,57.5z M93.7,57.5c0,2.3,0.1,5.1,0.3,8.3
		c0.2,3.2,0.8,6.3,1.7,9.3c0.9,3,2.3,5.5,4.2,7.6c1.9,2.1,4.5,3.1,7.9,3.1c3.3,0,5.9-1,7.8-3.1c1.9-2.1,3.3-4.6,4.2-7.6
		c0.9-3,1.5-6.1,1.7-9.3c0.2-3.2,0.3-6,0.3-8.3c0-2.3-0.1-5.1-0.3-8.3c-0.2-3.2-0.8-6.3-1.7-9.3c-0.9-3-2.3-5.5-4.2-7.6
		c-1.9-2.1-4.5-3.1-7.8-3.1c-3.4,0-6,1-7.9,3.1c-1.9,2.1-3.2,4.6-4.2,7.6c-0.9,3-1.5,6.1-1.7,9.3C93.8,52.4,93.7,55.2,93.7,57.5z"/>
	<path class="st0" d="M180.1,34.5L162.5,50l-10.5-12.2l28.6-24.2h17.4v87.8h-17.9V34.5z"/>
	<path class="st0" d="M253.4,45c1-0.2,2-0.5,3-0.6c1-0.2,2-0.2,3.1-0.2c4.1,0,7.9,0.7,11.3,2.2c3.4,1.5,6.3,3.5,8.7,6.1
		c2.4,2.6,4.3,5.6,5.6,9.1c1.3,3.5,2,7.3,2,11.2c0,4.5-0.8,8.7-2.5,12.3c-1.7,3.7-4,6.8-6.9,9.5c-2.9,2.6-6.4,4.7-10.4,6.1
		c-4,1.4-8.3,2.2-12.8,2.2c-4.6,0-8.9-0.7-12.9-2.2c-4-1.4-7.4-3.5-10.4-6.1c-2.9-2.6-5.3-5.8-6.9-9.5c-1.7-3.7-2.5-7.8-2.5-12.3
		c0-3.1,0.3-6,0.9-8.6c0.6-2.6,1.3-5.1,2.3-7.4c0.9-2.3,2.1-4.5,3.3-6.6c1.3-2.1,2.6-4.3,4-6.5l19.2-30H274L253.4,45z M268.4,72
		c0-4-1.3-7.3-3.9-9.9s-6-3.9-10.2-3.9s-7.6,1.3-10.2,3.9s-3.9,5.9-3.9,9.9c0,4,1.3,7.3,3.9,9.9s6,3.9,10.2,3.9s7.6-1.3,10.2-3.9
		S268.4,76,268.4,72z"/>
</g>
<g>
	<path class="st0" d="M312.9,81.7L347,51.1c1.7-1.6,3.5-3.3,5.2-5.3c1.7-2,2.6-4.3,2.6-6.9c0-3-1.1-5.3-3.2-7
		c-2.2-1.7-4.7-2.5-7.6-2.5c-3.5,0-6.2,1.1-8.1,3.2c-1.9,2.2-3,4.8-3.3,7.9L314.1,39c0.2-4.5,1.2-8.5,2.9-11.8
		c1.7-3.3,3.8-6.1,6.6-8.4s5.9-3.9,9.6-5c3.7-1.1,7.7-1.7,12-1.7c4,0,7.7,0.6,11.2,1.7c3.5,1.1,6.5,2.8,9.1,5c2.6,2.2,4.6,4.9,6,8.2
		c1.4,3.3,2.2,7.2,2.2,11.5c0,2.8-0.3,5.4-0.9,7.6c-0.6,2.3-1.4,4.3-2.4,6.2c-1,1.9-2.3,3.6-3.7,5.1c-1.4,1.6-2.9,3.1-4.6,4.6
		l-26.7,22.9h38.9v16.4h-61.3V81.7z"/>
	<path class="st0" d="M384.4,57.5c0-5.2,0.5-10.5,1.4-15.9c0.9-5.4,2.6-10.2,5.1-14.6c2.4-4.4,5.8-8,10-10.7
		c4.2-2.8,9.6-4.2,16.1-4.2c6.5,0,11.9,1.4,16.1,4.2c4.2,2.8,7.5,6.3,10,10.7c2.4,4.4,4.1,9.3,5.1,14.6c0.9,5.4,1.4,10.7,1.4,15.9
		s-0.5,10.5-1.4,15.9c-1,5.4-2.6,10.3-5.1,14.6c-2.4,4.4-5.8,8-10,10.7c-4.2,2.8-9.6,4.2-16.1,4.2c-6.5,0-11.9-1.4-16.1-4.2
		s-7.5-6.3-10-10.7c-2.4-4.4-4.1-9.3-5.1-14.6C384.8,68,384.4,62.7,384.4,57.5z M403,57.5c0,2.3,0.1,5.1,0.3,8.3
		c0.2,3.2,0.8,6.3,1.7,9.3c0.9,3,2.3,5.5,4.2,7.6c1.9,2.1,4.5,3.1,7.9,3.1c3.3,0,5.9-1,7.8-3.1c1.9-2.1,3.3-4.6,4.2-7.6
		c0.9-3,1.5-6.1,1.7-9.3c0.2-3.2,0.3-6,0.3-8.3c0-2.3-0.1-5.1-0.3-8.3c-0.2-3.2-0.8-6.3-1.7-9.3c-0.9-3-2.3-5.5-4.2-7.6
		c-1.9-2.1-4.5-3.1-7.8-3.1c-3.4,0-6,1-7.9,3.1c-1.9,2.1-3.2,4.6-4.2,7.6c-0.9,3-1.5,6.1-1.7,9.3C403.1,52.4,403,55.2,403,57.5z"/>
	<path class="st0" d="M489.4,34.5L471.8,50l-10.5-12.2l28.6-24.2h17.4v87.8h-17.9V34.5z"/>
	<path class="st0" d="M591.2,30h-34.8L556,43.5c1.9-0.7,4.5-1,7.8-1c4.5,0,8.6,0.7,12.3,2c3.7,1.3,6.9,3.2,9.6,5.8
		c2.7,2.5,4.8,5.6,6.3,9.2c1.5,3.6,2.2,7.6,2.2,12.1c0,5-0.8,9.4-2.5,13.3c-1.7,3.9-4,7.2-7,9.9c-3,2.7-6.5,4.7-10.6,6.1
		c-4.1,1.4-8.5,2.1-13.3,2.1c-7.6,0-14-1.9-19.1-5.6c-5.1-3.7-8.6-9.3-10.5-16.9l19.5-4.5c0.5,3.1,1.8,5.7,4,7.6
		c2.1,1.9,4.8,2.9,8.1,2.9c4,0,7.1-1.2,9.5-3.7c2.4-2.5,3.5-5.6,3.5-9.4c0-2.9-0.6-5.3-1.8-7.1c-1.2-1.9-2.8-3.3-4.7-4.5
		c-1.9-1.1-4.1-1.9-6.5-2.3c-2.4-0.4-4.8-0.6-7.2-0.6c-3.1,0-6.1,0.3-9.2,0.9c-3.1,0.6-6.1,1.4-9,2.4l1-48.5h53.1V30z"/>
</g>
<g>
	<path class="st0" d="M607.1,81.7l34.1-30.6c1.7-1.6,3.5-3.3,5.2-5.3c1.7-2,2.6-4.3,2.6-6.9c0-3-1.1-5.3-3.2-7
		c-2.2-1.7-4.7-2.5-7.6-2.5c-3.5,0-6.2,1.1-8.1,3.2c-1.9,2.2-3,4.8-3.3,7.9L608.2,39c0.2-4.5,1.2-8.5,2.9-11.8
		c1.7-3.3,3.8-6.1,6.6-8.4s5.9-3.9,9.6-5c3.7-1.1,7.7-1.7,12-1.7c4,0,7.7,0.6,11.2,1.7c3.5,1.1,6.5,2.8,9.1,5c2.6,2.2,4.6,4.9,6,8.2
		c1.4,3.3,2.2,7.2,2.2,11.5c0,2.8-0.3,5.4-0.9,7.6c-0.6,2.3-1.4,4.3-2.4,6.2c-1,1.9-2.3,3.6-3.7,5.1c-1.4,1.6-2.9,3.1-4.6,4.6
		l-26.7,22.9h38.9v16.4h-61.3V81.7z"/>
	<path class="st0" d="M678.6,57.5c0-5.2,0.5-10.5,1.4-15.9c0.9-5.4,2.6-10.2,5.1-14.6c2.4-4.4,5.8-8,10-10.7
		c4.2-2.8,9.6-4.2,16.1-4.2c6.5,0,11.9,1.4,16.1,4.2c4.2,2.8,7.5,6.3,10,10.7c2.4,4.4,4.1,9.3,5.1,14.6c0.9,5.4,1.4,10.7,1.4,15.9
		s-0.5,10.5-1.4,15.9c-1,5.4-2.6,10.3-5.1,14.6c-2.4,4.4-5.8,8-10,10.7c-4.2,2.8-9.6,4.2-16.1,4.2c-6.5,0-11.9-1.4-16.1-4.2
		s-7.5-6.3-10-10.7c-2.4-4.4-4.1-9.3-5.1-14.6C679,68,678.6,62.7,678.6,57.5z M697.2,57.5c0,2.3,0.1,5.1,0.3,8.3
		c0.2,3.2,0.8,6.3,1.7,9.3c0.9,3,2.3,5.5,4.2,7.6c1.9,2.1,4.5,3.1,7.9,3.1c3.3,0,5.9-1,7.8-3.1c1.9-2.1,3.3-4.6,4.2-7.6
		c0.9-3,1.5-6.1,1.7-9.3c0.2-3.2,0.3-6,0.3-8.3c0-2.3-0.1-5.1-0.3-8.3c-0.2-3.2-0.8-6.3-1.7-9.3c-0.9-3-2.3-5.5-4.2-7.6
		c-1.9-2.1-4.5-3.1-7.8-3.1c-3.4,0-6,1-7.9,3.1c-1.9,2.1-3.2,4.6-4.2,7.6c-0.9,3-1.5,6.1-1.7,9.3C697.3,52.4,697.2,55.2,697.2,57.5z
		"/>
	<path class="st0" d="M783.6,34.5L766,50l-10.5-12.2l28.6-24.2h17.4v87.8h-17.9V34.5z"/>
	<path class="st0" d="M856.9,45c1-0.2,2-0.5,3-0.6c1-0.2,2-0.2,3.1-0.2c4.1,0,7.9,0.7,11.3,2.2c3.4,1.5,6.3,3.5,8.7,6.1
		c2.4,2.6,4.3,5.6,5.6,9.1c1.3,3.5,2,7.3,2,11.2c0,4.5-0.8,8.7-2.5,12.3c-1.7,3.7-4,6.8-6.9,9.5c-2.9,2.6-6.4,4.7-10.4,6.1
		c-4,1.4-8.3,2.2-12.8,2.2c-4.6,0-8.9-0.7-12.9-2.2c-4-1.4-7.4-3.5-10.4-6.1c-2.9-2.6-5.3-5.8-6.9-9.5c-1.7-3.7-2.5-7.8-2.5-12.3
		c0-3.1,0.3-6,0.9-8.6c0.6-2.6,1.3-5.1,2.3-7.4c0.9-2.3,2.1-4.5,3.3-6.6c1.3-2.1,2.6-4.3,4-6.5l19.2-30h22.7L856.9,45z M871.9,72
		c0-4-1.3-7.3-3.9-9.9s-6-3.9-10.2-3.9s-7.6,1.3-10.2,3.9s-3.9,5.9-3.9,9.9c0,4,1.3,7.3,3.9,9.9s6,3.9,10.2,3.9s7.6-1.3,10.2-3.9
		S871.9,76,871.9,72z"/>
</g>
<g>
	<path class="st0" d="M3.6,285.2l34.1-30.6c1.7-1.6,3.5-3.3,5.2-5.3c1.7-2,2.6-4.3,2.6-6.9c0-3-1.1-5.3-3.2-7
		c-2.2-1.7-4.7-2.5-7.6-2.5c-3.5,0-6.2,1.1-8.1,3.2c-1.9,2.2-3,4.8-3.3,7.9l-18.6-1.4C5,238,6,234,7.6,230.7
		c1.7-3.3,3.8-6.1,6.6-8.4s5.9-3.9,9.6-5c3.7-1.1,7.7-1.7,12-1.7c4,0,7.7,0.6,11.2,1.7c3.5,1.1,6.5,2.8,9.1,5c2.6,2.2,4.6,4.9,6,8.2
		c1.4,3.3,2.2,7.2,2.2,11.5c0,2.8-0.3,5.4-0.9,7.6c-0.6,2.3-1.4,4.3-2.4,6.2c-1,1.9-2.3,3.6-3.7,5.1c-1.4,1.6-2.9,3.1-4.6,4.6
		L26,288.5h38.9v16.4H3.6V285.2z"/>
	<path class="st0" d="M75.1,261c0-5.2,0.5-10.5,1.4-15.9c0.9-5.4,2.6-10.2,5.1-14.6c2.4-4.4,5.8-8,10-10.7c4.2-2.8,9.6-4.2,16.1-4.2
		c6.5,0,11.9,1.4,16.1,4.2c4.2,2.8,7.5,6.3,10,10.7c2.4,4.4,4.1,9.3,5.1,14.6c0.9,5.4,1.4,10.7,1.4,15.9s-0.5,10.5-1.4,15.9
		c-1,5.4-2.6,10.3-5.1,14.6c-2.4,4.4-5.8,8-10,10.7c-4.2,2.8-9.6,4.2-16.1,4.2c-6.5,0-11.9-1.4-16.1-4.2s-7.5-6.3-10-10.7
		c-2.4-4.4-4.1-9.3-5.1-14.6C75.5,271.5,75.1,266.2,75.1,261z M93.7,261c0,2.3,0.1,5.1,0.3,8.3c0.2,3.2,0.8,6.3,1.7,9.3
		c0.9,3,2.3,5.5,4.2,7.6c1.9,2.1,4.5,3.1,7.9,3.1c3.3,0,5.9-1,7.8-3.1c1.9-2.1,3.3-4.6,4.2-7.6c0.9-3,1.5-6.1,1.7-9.3
		c0.2-3.2,0.3-6,0.3-8.3c0-2.3-0.1-5.1-0.3-8.3c-0.2-3.2-0.8-6.3-1.7-9.3c-0.9-3-2.3-5.5-4.2-7.6c-1.9-2.1-4.5-3.1-7.8-3.1
		c-3.4,0-6,1-7.9,3.1c-1.9,2.1-3.2,4.6-4.2,7.6c-0.9,3-1.5,6.1-1.7,9.3C93.8,255.9,93.7,258.7,93.7,261z"/>
	<path class="st0" d="M180.1,237.9l-17.6,15.5l-10.5-12.2l28.6-24.2h17.4v87.8h-17.9V237.9z"/>
	<path class="st0" d="M253.4,248.5c1-0.2,2-0.5,3-0.6c1-0.2,2-0.2,3.1-0.2c4.1,0,7.9,0.7,11.3,2.2c3.4,1.5,6.3,3.5,8.7,6.1
		c2.4,2.6,4.3,5.6,5.6,9.1c1.3,3.5,2,7.3,2,11.2c0,4.5-0.8,8.7-2.5,12.3c-1.7,3.7-4,6.8-6.9,9.5c-2.9,2.6-6.4,4.7-10.4,6.1
		c-4,1.4-8.3,2.2-12.8,2.2c-4.6,0-8.9-0.7-12.9-2.2c-4-1.4-7.4-3.5-10.4-6.1c-2.9-2.6-5.3-5.8-6.9-9.5c-1.7-3.7-2.5-7.8-2.5-12.3
		c0-3.1,0.3-6,0.9-8.6c0.6-2.6,1.3-5.1,2.3-7.4c0.9-2.3,2.1-4.5,3.3-6.6c1.3-2.1,2.6-4.3,4-6.5l19.2-30H274L253.4,248.5z
		 M268.4,275.5c0-4-1.3-7.3-3.9-9.9s-6-3.9-10.2-3.9s-7.6,1.3-10.2,3.9s-3.9,5.9-3.9,9.9c0,4,1.3,7.3,3.9,9.9s6,3.9,10.2,3.9
		s7.6-1.3,10.2-3.9S268.4,279.5,268.4,275.5z"/>
</g>
<g>
	<path class="st0" d="M312.9,285.2l34.1-30.6c1.7-1.6,3.5-3.3,5.2-5.3c1.7-2,2.6-4.3,2.6-6.9c0-3-1.1-5.3-3.2-7
		c-2.2-1.7-4.7-2.5-7.6-2.5c-3.5,0-6.2,1.1-8.1,3.2c-1.9,2.2-3,4.8-3.3,7.9l-18.6-1.4c0.2-4.5,1.2-8.5,2.9-11.8
		c1.7-3.3,3.8-6.1,6.6-8.4s5.9-3.9,9.6-5c3.7-1.1,7.7-1.7,12-1.7c4,0,7.7,0.6,11.2,1.7c3.5,1.1,6.5,2.8,9.1,5c2.6,2.2,4.6,4.9,6,8.2
		c1.4,3.3,2.2,7.2,2.2,11.5c0,2.8-0.3,5.4-0.9,7.6c-0.6,2.3-1.4,4.3-2.4,6.2c-1,1.9-2.3,3.6-3.7,5.1c-1.4,1.6-2.9,3.1-4.6,4.6
		l-26.7,22.9h38.9v16.4h-61.3V285.2z"/>
	<path class="st0" d="M384.4,261c0-5.2,0.5-10.5,1.4-15.9c0.9-5.4,2.6-10.2,5.1-14.6c2.4-4.4,5.8-8,10-10.7
		c4.2-2.8,9.6-4.2,16.1-4.2c6.5,0,11.9,1.4,16.1,4.2c4.2,2.8,7.5,6.3,10,10.7c2.4,4.4,4.1,9.3,5.1,14.6c0.9,5.4,1.4,10.7,1.4,15.9
		s-0.5,10.5-1.4,15.9c-1,5.4-2.6,10.3-5.1,14.6c-2.4,4.4-5.8,8-10,10.7c-4.2,2.8-9.6,4.2-16.1,4.2c-6.5,0-11.9-1.4-16.1-4.2
		s-7.5-6.3-10-10.7c-2.4-4.4-4.1-9.3-5.1-14.6C384.8,271.5,384.4,266.2,384.4,261z M403,261c0,2.3,0.1,5.1,0.3,8.3
		c0.2,3.2,0.8,6.3,1.7,9.3c0.9,3,2.3,5.5,4.2,7.6c1.9,2.1,4.5,3.1,7.9,3.1c3.3,0,5.9-1,7.8-3.1c1.9-2.1,3.3-4.6,4.2-7.6
		c0.9-3,1.5-6.1,1.7-9.3c0.2-3.2,0.3-6,0.3-8.3c0-2.3-0.1-5.1-0.3-8.3c-0.2-3.2-0.8-6.3-1.7-9.3c-0.9-3-2.3-5.5-4.2-7.6
		c-1.9-2.1-4.5-3.1-7.8-3.1c-3.4,0-6,1-7.9,3.1c-1.9,2.1-3.2,4.6-4.2,7.6c-0.9,3-1.5,6.1-1.7,9.3C403.1,255.9,403,258.7,403,261z"/>
	<path class="st0" d="M489.4,237.9l-17.6,15.5l-10.5-12.2l28.6-24.2h17.4v87.8h-17.9V237.9z"/>
	<path class="st0" d="M591.2,233.5h-34.8L556,247c1.9-0.7,4.5-1,7.8-1c4.5,0,8.6,0.7,12.3,2c3.7,1.3,6.9,3.2,9.6,5.8
		c2.7,2.5,4.8,5.6,6.3,9.2c1.5,3.6,2.2,7.6,2.2,12.1c0,5-0.8,9.4-2.5,13.3c-1.7,3.9-4,7.2-7,9.9c-3,2.7-6.5,4.7-10.6,6.1
		c-4.1,1.4-8.5,2.1-13.3,2.1c-7.6,0-14-1.9-19.1-5.6c-5.1-3.7-8.6-9.3-10.5-16.9l19.5-4.5c0.5,3.1,1.8,5.7,4,7.6
		c2.1,1.9,4.8,2.9,8.1,2.9c4,0,7.1-1.2,9.5-3.7c2.4-2.5,3.5-5.6,3.5-9.4c0-2.9-0.6-5.3-1.8-7.1c-1.2-1.9-2.8-3.3-4.7-4.5
		c-1.9-1.1-4.1-1.9-6.5-2.3c-2.4-0.4-4.8-0.6-7.2-0.6c-3.1,0-6.1,0.3-9.2,0.9c-3.1,0.6-6.1,1.4-9,2.4l1-48.5h53.1V233.5z"/>
</g>
<g>
	<path class="st0" d="M607.1,285.2l34.1-30.6c1.7-1.6,3.5-3.3,5.2-5.3c1.7-2,2.6-4.3,2.6-6.9c0-3-1.1-5.3-3.2-7
		c-2.2-1.7-4.7-2.5-7.6-2.5c-3.5,0-6.2,1.1-8.1,3.2c-1.9,2.2-3,4.8-3.3,7.9l-18.6-1.4c0.2-4.5,1.2-8.5,2.9-11.8
		c1.7-3.3,3.8-6.1,6.6-8.4s5.9-3.9,9.6-5c3.7-1.1,7.7-1.7,12-1.7c4,0,7.7,0.6,11.2,1.7c3.5,1.1,6.5,2.8,9.1,5c2.6,2.2,4.6,4.9,6,8.2
		c1.4,3.3,2.2,7.2,2.2,11.5c0,2.8-0.3,5.4-0.9,7.6c-0.6,2.3-1.4,4.3-2.4,6.2c-1,1.9-2.3,3.6-3.7,5.1c-1.4,1.6-2.9,3.1-4.6,4.6
		l-26.7,22.9h38.9v16.4h-61.3V285.2z"/>
	<path class="st0" d="M678.6,261c0-5.2,0.5-10.5,1.4-15.9c0.9-5.4,2.6-10.2,5.1-14.6c2.4-4.4,5.8-8,10-10.7
		c4.2-2.8,9.6-4.2,16.1-4.2c6.5,0,11.9,1.4,16.1,4.2c4.2,2.8,7.5,6.3,10,10.7c2.4,4.4,4.1,9.3,5.1,14.6c0.9,5.4,1.4,10.7,1.4,15.9
		s-0.5,10.5-1.4,15.9c-1,5.4-2.6,10.3-5.1,14.6c-2.4,4.4-5.8,8-10,10.7c-4.2,2.8-9.6,4.2-16.1,4.2c-6.5,0-11.9-1.4-16.1-4.2
		s-7.5-6.3-10-10.7c-2.4-4.4-4.1-9.3-5.1-14.6C679,271.5,678.6,266.2,678.6,261z M697.2,261c0,2.3,0.1,5.1,0.3,8.3
		c0.2,3.2,0.8,6.3,1.7,9.3c0.9,3,2.3,5.5,4.2,7.6c1.9,2.1,4.5,3.1,7.9,3.1c3.3,0,5.9-1,7.8-3.1c1.9-2.1,3.3-4.6,4.2-7.6
		c0.9-3,1.5-6.1,1.7-9.3c0.2-3.2,0.3-6,0.3-8.3c0-2.3-0.1-5.1-0.3-8.3c-0.2-3.2-0.8-6.3-1.7-9.3c-0.9-3-2.3-5.5-4.2-7.6
		c-1.9-2.1-4.5-3.1-7.8-3.1c-3.4,0-6,1-7.9,3.1c-1.9,2.1-3.2,4.6-4.2,7.6c-0.9,3-1.5,6.1-1.7,9.3C697.3,255.9,697.2,258.7,697.2,261
		z"/>
	<path class="st0" d="M783.6,237.9L766,253.4l-10.5-12.2l28.6-24.2h17.4v87.8h-17.9V237.9z"/>
	<path class="st0" d="M856.9,248.5c1-0.2,2-0.5,3-0.6c1-0.2,2-0.2,3.1-0.2c4.1,0,7.9,0.7,11.3,2.2c3.4,1.5,6.3,3.5,8.7,6.1
		c2.4,2.6,4.3,5.6,5.6,9.1c1.3,3.5,2,7.3,2,11.2c0,4.5-0.8,8.7-2.5,12.3c-1.7,3.7-4,6.8-6.9,9.5c-2.9,2.6-6.4,4.7-10.4,6.1
		c-4,1.4-8.3,2.2-12.8,2.2c-4.6,0-8.9-0.7-12.9-2.2c-4-1.4-7.4-3.5-10.4-6.1c-2.9-2.6-5.3-5.8-6.9-9.5c-1.7-3.7-2.5-7.8-2.5-12.3
		c0-3.1,0.3-6,0.9-8.6c0.6-2.6,1.3-5.1,2.3-7.4c0.9-2.3,2.1-4.5,3.3-6.6c1.3-2.1,2.6-4.3,4-6.5l19.2-30h22.7L856.9,248.5z
		 M871.9,275.5c0-4-1.3-7.3-3.9-9.9s-6-3.9-10.2-3.9s-7.6,1.3-10.2,3.9s-3.9,5.9-3.9,9.9c0,4,1.3,7.3,3.9,9.9s6,3.9,10.2,3.9
		s7.6-1.3,10.2-3.9S871.9,279.5,871.9,275.5z"/>
</g>
<g>
	<path class="st0" d="M3.6,488.7l34.1-30.6c1.7-1.6,3.5-3.3,5.2-5.3c1.7-2,2.6-4.3,2.6-6.9c0-3-1.1-5.3-3.2-7
		c-2.2-1.7-4.7-2.5-7.6-2.5c-3.5,0-6.2,1.1-8.1,3.2c-1.9,2.2-3,4.8-3.3,7.9L4.8,446c0.2-4.5,1.2-8.5,2.9-11.8
		c1.7-3.3,3.8-6.1,6.6-8.4s5.9-3.9,9.6-5c3.7-1.1,7.7-1.7,12-1.7c4,0,7.7,0.6,11.2,1.7c3.5,1.1,6.5,2.8,9.1,5c2.6,2.2,4.6,4.9,6,8.2
		c1.4,3.3,2.2,7.2,2.2,11.5c0,2.8-0.3,5.4-0.9,7.6c-0.6,2.3-1.4,4.3-2.4,6.2c-1,1.9-2.3,3.6-3.7,5.1c-1.4,1.6-2.9,3.1-4.6,4.6
		L26,492h38.9v16.4H3.6V488.7z"/>
	<path class="st0" d="M75.1,464.5c0-5.2,0.5-10.5,1.4-15.9c0.9-5.4,2.6-10.2,5.1-14.6c2.4-4.4,5.8-8,10-10.7
		c4.2-2.8,9.6-4.2,16.1-4.2c6.5,0,11.9,1.4,16.1,4.2c4.2,2.8,7.5,6.3,10,10.7c2.4,4.4,4.1,9.3,5.1,14.6c0.9,5.4,1.4,10.7,1.4,15.9
		s-0.5,10.5-1.4,15.9c-1,5.4-2.6,10.3-5.1,14.6c-2.4,4.4-5.8,8-10,10.7c-4.2,2.8-9.6,4.2-16.1,4.2c-6.5,0-11.9-1.4-16.1-4.2
		s-7.5-6.3-10-10.7c-2.4-4.4-4.1-9.3-5.1-14.6C75.5,475,75.1,469.7,75.1,464.5z M93.7,464.5c0,2.3,0.1,5.1,0.3,8.3
		c0.2,3.2,0.8,6.3,1.7,9.3c0.9,3,2.3,5.5,4.2,7.6c1.9,2.1,4.5,3.1,7.9,3.1c3.3,0,5.9-1,7.8-3.1c1.9-2.1,3.3-4.6,4.2-7.6
		c0.9-3,1.5-6.1,1.7-9.3c0.2-3.2,0.3-6,0.3-8.3c0-2.3-0.1-5.1-0.3-8.3c-0.2-3.2-0.8-6.3-1.7-9.3c-0.9-3-2.3-5.5-4.2-7.6
		c-1.9-2.1-4.5-3.1-7.8-3.1c-3.4,0-6,1-7.9,3.1c-1.9,2.1-3.2,4.6-4.2,7.6c-0.9,3-1.5,6.1-1.7,9.3C93.8,459.4,93.7,462.2,93.7,464.5z
		"/>
	<path class="st0" d="M180.1,441.4l-17.6,15.5l-10.5-12.2l28.6-24.2h17.4v87.8h-17.9V441.4z"/>
	<path class="st0" d="M253.4,452c1-0.2,2-0.5,3-0.6c1-0.2,2-0.2,3.1-0.2c4.1,0,7.9,0.7,11.3,2.2c3.4,1.5,6.3,3.5,8.7,6.1
		c2.4,2.6,4.3,5.6,5.6,9.1c1.3,3.5,2,7.3,2,11.2c0,4.5-0.8,8.7-2.5,12.3c-1.7,3.7-4,6.8-6.9,9.5c-2.9,2.6-6.4,4.7-10.4,6.1
		c-4,1.4-8.3,2.2-12.8,2.2c-4.6,0-8.9-0.7-12.9-2.2c-4-1.4-7.4-3.5-10.4-6.1c-2.9-2.6-5.3-5.8-6.9-9.5c-1.7-3.7-2.5-7.8-2.5-12.3
		c0-3.1,0.3-6,0.9-8.6c0.6-2.6,1.3-5.1,2.3-7.4c0.9-2.3,2.1-4.5,3.3-6.6c1.3-2.1,2.6-4.3,4-6.5l19.2-30H274L253.4,452z M268.4,479
		c0-4-1.3-7.3-3.9-9.9s-6-3.9-10.2-3.9s-7.6,1.3-10.2,3.9s-3.9,5.9-3.9,9.9c0,4,1.3,7.3,3.9,9.9s6,3.9,10.2,3.9s7.6-1.3,10.2-3.9
		S268.4,483,268.4,479z"/>
</g>
<g>
	<path class="st0" d="M312.9,488.7l34.1-30.6c1.7-1.6,3.5-3.3,5.2-5.3c1.7-2,2.6-4.3,2.6-6.9c0-3-1.1-5.3-3.2-7
		c-2.2-1.7-4.7-2.5-7.6-2.5c-3.5,0-6.2,1.1-8.1,3.2c-1.9,2.2-3,4.8-3.3,7.9l-18.6-1.4c0.2-4.5,1.2-8.5,2.9-11.8
		c1.7-3.3,3.8-6.1,6.6-8.4s5.9-3.9,9.6-5c3.7-1.1,7.7-1.7,12-1.7c4,0,7.7,0.6,11.2,1.7c3.5,1.1,6.5,2.8,9.1,5c2.6,2.2,4.6,4.9,6,8.2
		c1.4,3.3,2.2,7.2,2.2,11.5c0,2.8-0.3,5.4-0.9,7.6c-0.6,2.3-1.4,4.3-2.4,6.2c-1,1.9-2.3,3.6-3.7,5.1c-1.4,1.6-2.9,3.1-4.6,4.6
		L335.3,492h38.9v16.4h-61.3V488.7z"/>
	<path class="st0" d="M384.4,464.5c0-5.2,0.5-10.5,1.4-15.9c0.9-5.4,2.6-10.2,5.1-14.6c2.4-4.4,5.8-8,10-10.7
		c4.2-2.8,9.6-4.2,16.1-4.2c6.5,0,11.9,1.4,16.1,4.2c4.2,2.8,7.5,6.3,10,10.7c2.4,4.4,4.1,9.3,5.1,14.6c0.9,5.4,1.4,10.7,1.4,15.9
		s-0.5,10.5-1.4,15.9c-1,5.4-2.6,10.3-5.1,14.6c-2.4,4.4-5.8,8-10,10.7c-4.2,2.8-9.6,4.2-16.1,4.2c-6.5,0-11.9-1.4-16.1-4.2
		s-7.5-6.3-10-10.7c-2.4-4.4-4.1-9.3-5.1-14.6C384.8,475,384.4,469.7,384.4,464.5z M403,464.5c0,2.3,0.1,5.1,0.3,8.3
		c0.2,3.2,0.8,6.3,1.7,9.3c0.9,3,2.3,5.5,4.2,7.6c1.9,2.1,4.5,3.1,7.9,3.1c3.3,0,5.9-1,7.8-3.1c1.9-2.1,3.3-4.6,4.2-7.6
		c0.9-3,1.5-6.1,1.7-9.3c0.2-3.2,0.3-6,0.3-8.3c0-2.3-0.1-5.1-0.3-8.3c-0.2-3.2-0.8-6.3-1.7-9.3c-0.9-3-2.3-5.5-4.2-7.6
		c-1.9-2.1-4.5-3.1-7.8-3.1c-3.4,0-6,1-7.9,3.1c-1.9,2.1-3.2,4.6-4.2,7.6c-0.9,3-1.5,6.1-1.7,9.3C403.1,459.4,403,462.2,403,464.5z"
		/>
	<path class="st0" d="M489.4,441.4l-17.6,15.5l-10.5-12.2l28.6-24.2h17.4v87.8h-17.9V441.4z"/>
	<path class="st0" d="M591.2,437h-34.8l-0.4,13.5c1.9-0.7,4.5-1,7.8-1c4.5,0,8.6,0.7,12.3,2c3.7,1.3,6.9,3.2,9.6,5.8
		c2.7,2.5,4.8,5.6,6.3,9.2c1.5,3.6,2.2,7.6,2.2,12.1c0,5-0.8,9.4-2.5,13.3c-1.7,3.9-4,7.2-7,9.9c-3,2.7-6.5,4.7-10.6,6.1
		c-4.1,1.4-8.5,2.1-13.3,2.1c-7.6,0-14-1.9-19.1-5.6c-5.1-3.7-8.6-9.3-10.5-16.9l19.5-4.5c0.5,3.1,1.8,5.7,4,7.6
		c2.1,1.9,4.8,2.9,8.1,2.9c4,0,7.1-1.2,9.5-3.7c2.4-2.5,3.5-5.6,3.5-9.4c0-2.9-0.6-5.3-1.8-7.1c-1.2-1.9-2.8-3.3-4.7-4.5
		c-1.9-1.1-4.1-1.9-6.5-2.3c-2.4-0.4-4.8-0.6-7.2-0.6c-3.1,0-6.1,0.3-9.2,0.9c-3.1,0.6-6.1,1.4-9,2.4l1-48.5h53.1V437z"/>
</g>
<g>
	<path class="st0" d="M607.1,488.7l34.1-30.6c1.7-1.6,3.5-3.3,5.2-5.3c1.7-2,2.6-4.3,2.6-6.9c0-3-1.1-5.3-3.2-7
		c-2.2-1.7-4.7-2.5-7.6-2.5c-3.5,0-6.2,1.1-8.1,3.2c-1.9,2.2-3,4.8-3.3,7.9l-18.6-1.4c0.2-4.5,1.2-8.5,2.9-11.8
		c1.7-3.3,3.8-6.1,6.6-8.4s5.9-3.9,9.6-5c3.7-1.1,7.7-1.7,12-1.7c4,0,7.7,0.6,11.2,1.7c3.5,1.1,6.5,2.8,9.1,5c2.6,2.2,4.6,4.9,6,8.2
		c1.4,3.3,2.2,7.2,2.2,11.5c0,2.8-0.3,5.4-0.9,7.6c-0.6,2.3-1.4,4.3-2.4,6.2c-1,1.9-2.3,3.6-3.7,5.1c-1.4,1.6-2.9,3.1-4.6,4.6
		L629.4,492h38.9v16.4h-61.3V488.7z"/>
	<path class="st0" d="M678.6,464.5c0-5.2,0.5-10.5,1.4-15.9c0.9-5.4,2.6-10.2,5.1-14.6c2.4-4.4,5.8-8,10-10.7
		c4.2-2.8,9.6-4.2,16.1-4.2c6.5,0,11.9,1.4,16.1,4.2c4.2,2.8,7.5,6.3,10,10.7c2.4,4.4,4.1,9.3,5.1,14.6c0.9,5.4,1.4,10.7,1.4,15.9
		s-0.5,10.5-1.4,15.9c-1,5.4-2.6,10.3-5.1,14.6c-2.4,4.4-5.8,8-10,10.7c-4.2,2.8-9.6,4.2-16.1,4.2c-6.5,0-11.9-1.4-16.1-4.2
		s-7.5-6.3-10-10.7c-2.4-4.4-4.1-9.3-5.1-14.6C679,475,678.6,469.7,678.6,464.5z M697.2,464.5c0,2.3,0.1,5.1,0.3,8.3
		c0.2,3.2,0.8,6.3,1.7,9.3c0.9,3,2.3,5.5,4.2,7.6c1.9,2.1,4.5,3.1,7.9,3.1c3.3,0,5.9-1,7.8-3.1c1.9-2.1,3.3-4.6,4.2-7.6
		c0.9-3,1.5-6.1,1.7-9.3c0.2-3.2,0.3-6,0.3-8.3c0-2.3-0.1-5.1-0.3-8.3c-0.2-3.2-0.8-6.3-1.7-9.3c-0.9-3-2.3-5.5-4.2-7.6
		c-1.9-2.1-4.5-3.1-7.8-3.1c-3.4,0-6,1-7.9,3.1c-1.9,2.1-3.2,4.6-4.2,7.6c-0.9,3-1.5,6.1-1.7,9.3
		C697.3,459.4,697.2,462.2,697.2,464.5z"/>
	<path class="st0" d="M783.6,441.4L766,456.9l-10.5-12.2l28.6-24.2h17.4v87.8h-17.9V441.4z"/>
	<path class="st0" d="M856.9,452c1-0.2,2-0.5,3-0.6c1-0.2,2-0.2,3.1-0.2c4.1,0,7.9,0.7,11.3,2.2c3.4,1.5,6.3,3.5,8.7,6.1
		c2.4,2.6,4.3,5.6,5.6,9.1c1.3,3.5,2,7.3,2,11.2c0,4.5-0.8,8.7-2.5,12.3c-1.7,3.7-4,6.8-6.9,9.5c-2.9,2.6-6.4,4.7-10.4,6.1
		c-4,1.4-8.3,2.2-12.8,2.2c-4.6,0-8.9-0.7-12.9-2.2c-4-1.4-7.4-3.5-10.4-6.1c-2.9-2.6-5.3-5.8-6.9-9.5c-1.7-3.7-2.5-7.8-2.5-12.3
		c0-3.1,0.3-6,0.9-8.6c0.6-2.6,1.3-5.1,2.3-7.4c0.9-2.3,2.1-4.5,3.3-6.6c1.3-2.1,2.6-4.3,4-6.5l19.2-30h22.7L856.9,452z M871.9,479
		c0-4-1.3-7.3-3.9-9.9s-6-3.9-10.2-3.9s-7.6,1.3-10.2,3.9s-3.9,5.9-3.9,9.9c0,4,1.3,7.3,3.9,9.9s6,3.9,10.2,3.9s7.6-1.3,10.2-3.9
		S871.9,483,871.9,479z"/>
</g>
<g>
	<path class="st0" d="M74.6,182.9l34.1-30.6c1.7-1.6,3.5-3.3,5.2-5.3c1.7-2,2.6-4.3,2.6-6.9c0-3-1.1-5.3-3.2-7
		c-2.2-1.7-4.7-2.5-7.6-2.5c-3.5,0-6.2,1.1-8.1,3.2c-1.9,2.2-3,4.8-3.3,7.9l-18.6-1.4c0.2-4.5,1.2-8.5,2.9-11.8
		c1.7-3.3,3.8-6.1,6.6-8.4s5.9-3.9,9.6-5c3.7-1.1,7.7-1.7,12-1.7c4,0,7.7,0.6,11.2,1.7c3.5,1.1,6.5,2.8,9.1,5c2.6,2.2,4.6,4.9,6,8.2
		c1.4,3.3,2.2,7.2,2.2,11.5c0,2.8-0.3,5.4-0.9,7.6c-0.6,2.3-1.4,4.3-2.4,6.2c-1,1.9-2.3,3.6-3.7,5.1c-1.4,1.6-2.9,3.1-4.6,4.6
		l-26.7,22.9h38.9v16.4H74.6V182.9z"/>
	<path class="st0" d="M146,158.7c0-5.2,0.5-10.5,1.4-15.9c0.9-5.4,2.6-10.2,5.1-14.6c2.4-4.4,5.8-8,10-10.7
		c4.2-2.8,9.6-4.2,16.1-4.2c6.5,0,11.9,1.4,16.1,4.2c4.2,2.8,7.5,6.3,10,10.7c2.4,4.4,4.1,9.3,5.1,14.6c0.9,5.4,1.4,10.7,1.4,15.9
		s-0.5,10.5-1.4,15.9c-1,5.4-2.6,10.3-5.1,14.6c-2.4,4.4-5.8,8-10,10.7c-4.2,2.8-9.6,4.2-16.1,4.2c-6.5,0-11.9-1.4-16.1-4.2
		s-7.5-6.3-10-10.7c-2.4-4.4-4.1-9.3-5.1-14.6C146.5,169.2,146,163.9,146,158.7z M164.6,158.7c0,2.3,0.1,5.1,0.3,8.3
		c0.2,3.2,0.8,6.3,1.7,9.3c0.9,3,2.3,5.5,4.2,7.6c1.9,2.1,4.5,3.1,7.9,3.1c3.3,0,5.9-1,7.8-3.1c1.9-2.1,3.3-4.6,4.2-7.6
		c0.9-3,1.5-6.1,1.7-9.3c0.2-3.2,0.3-6,0.3-8.3c0-2.3-0.1-5.1-0.3-8.3c-0.2-3.2-0.8-6.3-1.7-9.3c-0.9-3-2.3-5.5-4.2-7.6
		c-1.9-2.1-4.5-3.1-7.8-3.1c-3.4,0-6,1-7.9,3.1c-1.9,2.1-3.2,4.6-4.2,7.6c-0.9,3-1.5,6.1-1.7,9.3
		C164.7,153.6,164.6,156.4,164.6,158.7z"/>
	<path class="st0" d="M251,135.6l-17.6,15.5L222.9,139l28.6-24.2h17.4v87.8H251V135.6z"/>
	<path class="st0" d="M324.3,146.2c1-0.2,2-0.5,3-0.6c1-0.2,2-0.2,3.1-0.2c4.1,0,7.9,0.7,11.3,2.2c3.4,1.5,6.3,3.5,8.7,6.1
		c2.4,2.6,4.3,5.6,5.6,9.1c1.3,3.5,2,7.3,2,11.2c0,4.5-0.8,8.7-2.5,12.3c-1.7,3.7-4,6.8-6.9,9.5c-2.9,2.6-6.4,4.7-10.4,6.1
		c-4,1.4-8.3,2.2-12.8,2.2c-4.6,0-8.9-0.7-12.9-2.2c-4-1.4-7.4-3.5-10.4-6.1c-2.9-2.6-5.3-5.8-6.9-9.5c-1.7-3.7-2.5-7.8-2.5-12.3
		c0-3.1,0.3-6,0.9-8.6c0.6-2.6,1.3-5.1,2.3-7.4c0.9-2.3,2.1-4.5,3.3-6.6c1.3-2.1,2.6-4.3,4-6.5l19.2-30h22.7L324.3,146.2z
		 M339.3,173.2c0-4-1.3-7.3-3.9-9.9s-6-3.9-10.2-3.9s-7.6,1.3-10.2,3.9s-3.9,5.9-3.9,9.9c0,4,1.3,7.3,3.9,9.9s6,3.9,10.2,3.9
		s7.6-1.3,10.2-3.9S339.3,177.2,339.3,173.2z"/>
</g>
<g>
	<path class="st0" d="M383.9,182.9l34.1-30.6c1.7-1.6,3.5-3.3,5.2-5.3c1.7-2,2.6-4.3,2.6-6.9c0-3-1.1-5.3-3.2-7
		c-2.2-1.7-4.7-2.5-7.6-2.5c-3.5,0-6.2,1.1-8.1,3.2c-1.9,2.2-3,4.8-3.3,7.9l-18.6-1.4c0.2-4.5,1.2-8.5,2.9-11.8
		c1.7-3.3,3.8-6.1,6.6-8.4s5.9-3.9,9.6-5c3.7-1.1,7.7-1.7,12-1.7c4,0,7.7,0.6,11.2,1.7c3.5,1.1,6.5,2.8,9.1,5c2.6,2.2,4.6,4.9,6,8.2
		c1.4,3.3,2.2,7.2,2.2,11.5c0,2.8-0.3,5.4-0.9,7.6c-0.6,2.3-1.4,4.3-2.4,6.2c-1,1.9-2.3,3.6-3.7,5.1c-1.4,1.6-2.9,3.1-4.6,4.6
		l-26.7,22.9h38.9v16.4h-61.3V182.9z"/>
	<path class="st0" d="M455.3,158.7c0-5.2,0.5-10.5,1.4-15.9c0.9-5.4,2.6-10.2,5.1-14.6c2.4-4.4,5.8-8,10-10.7
		c4.2-2.8,9.6-4.2,16.1-4.2c6.5,0,11.9,1.4,16.1,4.2c4.2,2.8,7.5,6.3,10,10.7c2.4,4.4,4.1,9.3,5.1,14.6c0.9,5.4,1.4,10.7,1.4,15.9
		s-0.5,10.5-1.4,15.9c-1,5.4-2.6,10.3-5.1,14.6c-2.4,4.4-5.8,8-10,10.7c-4.2,2.8-9.6,4.2-16.1,4.2c-6.5,0-11.9-1.4-16.1-4.2
		s-7.5-6.3-10-10.7c-2.4-4.4-4.1-9.3-5.1-14.6C455.8,169.2,455.3,163.9,455.3,158.7z M473.9,158.7c0,2.3,0.1,5.1,0.3,8.3
		c0.2,3.2,0.8,6.3,1.7,9.3c0.9,3,2.3,5.5,4.2,7.6c1.9,2.1,4.5,3.1,7.9,3.1c3.3,0,5.9-1,7.8-3.1c1.9-2.1,3.3-4.6,4.2-7.6
		c0.9-3,1.5-6.1,1.7-9.3c0.2-3.2,0.3-6,0.3-8.3c0-2.3-0.1-5.1-0.3-8.3c-0.2-3.2-0.8-6.3-1.7-9.3c-0.9-3-2.3-5.5-4.2-7.6
		c-1.9-2.1-4.5-3.1-7.8-3.1c-3.4,0-6,1-7.9,3.1c-1.9,2.1-3.2,4.6-4.2,7.6c-0.9,3-1.5,6.1-1.7,9.3C474,153.6,473.9,156.4,473.9,158.7
		z"/>
	<path class="st0" d="M560.3,135.6l-17.6,15.5L532.2,139l28.6-24.2h17.4v87.8h-17.9V135.6z"/>
	<path class="st0" d="M662.1,131.2h-34.8l-0.4,13.5c1.9-0.7,4.5-1,7.8-1c4.5,0,8.6,0.7,12.3,2c3.7,1.3,6.9,3.2,9.6,5.8
		c2.7,2.5,4.8,5.6,6.3,9.2c1.5,3.6,2.2,7.6,2.2,12.1c0,5-0.8,9.4-2.5,13.3c-1.7,3.9-4,7.2-7,9.9c-3,2.7-6.5,4.7-10.6,6.1
		c-4.1,1.4-8.5,2.1-13.3,2.1c-7.6,0-14-1.9-19.1-5.6c-5.1-3.7-8.6-9.3-10.5-16.9l19.5-4.5c0.5,3.1,1.8,5.7,4,7.6
		c2.1,1.9,4.8,2.9,8.1,2.9c4,0,7.1-1.2,9.5-3.7c2.4-2.5,3.5-5.6,3.5-9.4c0-2.9-0.6-5.3-1.8-7.1c-1.2-1.9-2.8-3.3-4.7-4.5
		c-1.9-1.1-4.1-1.9-6.5-2.3c-2.4-0.4-4.8-0.6-7.2-0.6c-3.1,0-6.1,0.3-9.2,0.9c-3.1,0.6-6.1,1.4-9,2.4l1-48.5h53.1V131.2z"/>
</g>
<path class="st0" d="M678.1,182.9l34.1-30.6c1.7-1.6,3.5-3.3,5.2-5.3c1.7-2,2.6-4.3,2.6-6.9c0-3-1.1-5.3-3.2-7
	c-2.2-1.7-4.7-2.5-7.6-2.5c-3.5,0-6.2,1.1-8.1,3.2c-1.9,2.2-3,4.8-3.3,7.9l-18.6-1.4c0.2-4.5,1.2-8.5,2.9-11.8
	c1.7-3.3,3.8-6.1,6.6-8.4s5.9-3.9,9.6-5c3.7-1.1,7.7-1.7,12-1.7c4,0,7.7,0.6,11.2,1.7c3.5,1.1,6.5,2.8,9.1,5c2.6,2.2,4.6,4.9,6,8.2
	c1.4,3.3,2.2,7.2,2.2,11.5c0,2.8-0.3,5.4-0.9,7.6c-0.6,2.3-1.4,4.3-2.4,6.2c-1,1.9-2.3,3.6-3.7,5.1c-1.4,1.6-2.9,3.1-4.6,4.6
	l-26.7,22.9h38.9v16.4h-61.3V182.9z"/>
<path class="st0" d="M749.5,158.7c0-5.2,0.5-10.5,1.4-15.9c0.9-5.4,2.6-10.2,5.1-14.6c2.4-4.4,5.8-8,10-10.7
	c4.2-2.8,9.6-4.2,16.1-4.2c6.5,0,11.9,1.4,16.1,4.2c4.2,2.8,7.5,6.3,10,10.7c2.4,4.4,4.1,9.3,5.1,14.6c0.9,5.4,1.4,10.7,1.4,15.9
	s-0.5,10.5-1.4,15.9c-1,5.4-2.6,10.3-5.1,14.6c-2.4,4.4-5.8,8-10,10.7c-4.2,2.8-9.6,4.2-16.1,4.2c-6.5,0-11.9-1.4-16.1-4.2
	s-7.5-6.3-10-10.7c-2.4-4.4-4.1-9.3-5.1-14.6C750,169.2,749.5,163.9,749.5,158.7z M768.1,158.7c0,2.3,0.1,5.1,0.3,8.3
	c0.2,3.2,0.8,6.3,1.7,9.3c0.9,3,2.3,5.5,4.2,7.6c1.9,2.1,4.5,3.1,7.9,3.1c3.3,0,5.9-1,7.8-3.1c1.9-2.1,3.3-4.6,4.2-7.6
	c0.9-3,1.5-6.1,1.7-9.3c0.2-3.2,0.3-6,0.3-8.3c0-2.3-0.1-5.1-0.3-8.3c-0.2-3.2-0.8-6.3-1.7-9.3c-0.9-3-2.3-5.5-4.2-7.6
	c-1.9-2.1-4.5-3.1-7.8-3.1c-3.4,0-6,1-7.9,3.1c-1.9,2.1-3.2,4.6-4.2,7.6c-0.9,3-1.5,6.1-1.7,9.3
	C768.2,153.6,768.1,156.4,768.1,158.7z"/>
<path class="st0" d="M854.5,135.6l-17.6,15.5L826.4,139l28.6-24.2h17.4v87.8h-17.9V135.6z"/>
<g>
	<path class="st0" d="M74.6,386.4l34.1-30.6c1.7-1.6,3.5-3.3,5.2-5.3c1.7-2,2.6-4.3,2.6-6.9c0-3-1.1-5.3-3.2-7
		c-2.2-1.7-4.7-2.5-7.6-2.5c-3.5,0-6.2,1.1-8.1,3.2c-1.9,2.2-3,4.8-3.3,7.9l-18.6-1.4c0.2-4.5,1.2-8.5,2.9-11.8
		c1.7-3.3,3.8-6.1,6.6-8.4s5.9-3.9,9.6-5c3.7-1.1,7.7-1.7,12-1.7c4,0,7.7,0.6,11.2,1.7c3.5,1.1,6.5,2.8,9.1,5c2.6,2.2,4.6,4.9,6,8.2
		c1.4,3.3,2.2,7.2,2.2,11.5c0,2.8-0.3,5.4-0.9,7.6c-0.6,2.3-1.4,4.3-2.4,6.2c-1,1.9-2.3,3.6-3.7,5.1c-1.4,1.6-2.9,3.1-4.6,4.6
		l-26.7,22.9h38.9v16.4H74.6V386.4z"/>
	<path class="st0" d="M146,362.2c0-5.2,0.5-10.5,1.4-15.9c0.9-5.4,2.6-10.2,5.1-14.6c2.4-4.4,5.8-8,10-10.7
		c4.2-2.8,9.6-4.2,16.1-4.2c6.5,0,11.9,1.4,16.1,4.2c4.2,2.8,7.5,6.3,10,10.7c2.4,4.4,4.1,9.3,5.1,14.6c0.9,5.4,1.4,10.7,1.4,15.9
		s-0.5,10.5-1.4,15.9c-1,5.4-2.6,10.3-5.1,14.6c-2.4,4.4-5.8,8-10,10.7c-4.2,2.8-9.6,4.2-16.1,4.2c-6.5,0-11.9-1.4-16.1-4.2
		s-7.5-6.3-10-10.7c-2.4-4.4-4.1-9.3-5.1-14.6C146.5,372.7,146,367.4,146,362.2z M164.6,362.2c0,2.3,0.1,5.1,0.3,8.3
		c0.2,3.2,0.8,6.3,1.7,9.3c0.9,3,2.3,5.5,4.2,7.6c1.9,2.1,4.5,3.1,7.9,3.1c3.3,0,5.9-1,7.8-3.1c1.9-2.1,3.3-4.6,4.2-7.6
		c0.9-3,1.5-6.1,1.7-9.3c0.2-3.2,0.3-6,0.3-8.3c0-2.3-0.1-5.1-0.3-8.3c-0.2-3.2-0.8-6.3-1.7-9.3c-0.9-3-2.3-5.5-4.2-7.6
		c-1.9-2.1-4.5-3.1-7.8-3.1c-3.4,0-6,1-7.9,3.1c-1.9,2.1-3.2,4.6-4.2,7.6c-0.9,3-1.5,6.1-1.7,9.3
		C164.7,357.1,164.6,359.9,164.6,362.2z"/>
	<path class="st0" d="M251,339.1l-17.6,15.5l-10.5-12.2l28.6-24.2h17.4v87.8H251V339.1z"/>
	<path class="st0" d="M324.3,349.7c1-0.2,2-0.5,3-0.6c1-0.2,2-0.2,3.1-0.2c4.1,0,7.9,0.7,11.3,2.2c3.4,1.5,6.3,3.5,8.7,6.1
		c2.4,2.6,4.3,5.6,5.6,9.1c1.3,3.5,2,7.3,2,11.2c0,4.5-0.8,8.7-2.5,12.3c-1.7,3.7-4,6.8-6.9,9.5c-2.9,2.6-6.4,4.7-10.4,6.1
		c-4,1.4-8.3,2.2-12.8,2.2c-4.6,0-8.9-0.7-12.9-2.2c-4-1.4-7.4-3.5-10.4-6.1c-2.9-2.6-5.3-5.8-6.9-9.5c-1.7-3.7-2.5-7.8-2.5-12.3
		c0-3.1,0.3-6,0.9-8.6c0.6-2.6,1.3-5.1,2.3-7.4c0.9-2.3,2.1-4.5,3.3-6.6c1.3-2.1,2.6-4.3,4-6.5l19.2-30h22.7L324.3,349.7z
		 M339.3,376.7c0-4-1.3-7.3-3.9-9.9s-6-3.9-10.2-3.9s-7.6,1.3-10.2,3.9s-3.9,5.9-3.9,9.9c0,4,1.3,7.3,3.9,9.9s6,3.9,10.2,3.9
		s7.6-1.3,10.2-3.9S339.3,380.7,339.3,376.7z"/>
</g>
<g>
	<path class="st0" d="M383.9,386.4l34.1-30.6c1.7-1.6,3.5-3.3,5.2-5.3c1.7-2,2.6-4.3,2.6-6.9c0-3-1.1-5.3-3.2-7
		c-2.2-1.7-4.7-2.5-7.6-2.5c-3.5,0-6.2,1.1-8.1,3.2c-1.9,2.2-3,4.8-3.3,7.9l-18.6-1.4c0.2-4.5,1.2-8.5,2.9-11.8
		c1.7-3.3,3.8-6.1,6.6-8.4s5.9-3.9,9.6-5c3.7-1.1,7.7-1.7,12-1.7c4,0,7.7,0.6,11.2,1.7c3.5,1.1,6.5,2.8,9.1,5c2.6,2.2,4.6,4.9,6,8.2
		c1.4,3.3,2.2,7.2,2.2,11.5c0,2.8-0.3,5.4-0.9,7.6c-0.6,2.3-1.4,4.3-2.4,6.2c-1,1.9-2.3,3.6-3.7,5.1c-1.4,1.6-2.9,3.1-4.6,4.6
		l-26.7,22.9h38.9v16.4h-61.3V386.4z"/>
	<path class="st0" d="M455.3,362.2c0-5.2,0.5-10.5,1.4-15.9c0.9-5.4,2.6-10.2,5.1-14.6c2.4-4.4,5.8-8,10-10.7
		c4.2-2.8,9.6-4.2,16.1-4.2c6.5,0,11.9,1.4,16.1,4.2c4.2,2.8,7.5,6.3,10,10.7c2.4,4.4,4.1,9.3,5.1,14.6c0.9,5.4,1.4,10.7,1.4,15.9
		s-0.5,10.5-1.4,15.9c-1,5.4-2.6,10.3-5.1,14.6c-2.4,4.4-5.8,8-10,10.7c-4.2,2.8-9.6,4.2-16.1,4.2c-6.5,0-11.9-1.4-16.1-4.2
		s-7.5-6.3-10-10.7c-2.4-4.4-4.1-9.3-5.1-14.6C455.8,372.7,455.3,367.4,455.3,362.2z M473.9,362.2c0,2.3,0.1,5.1,0.3,8.3
		c0.2,3.2,0.8,6.3,1.7,9.3c0.9,3,2.3,5.5,4.2,7.6c1.9,2.1,4.5,3.1,7.9,3.1c3.3,0,5.9-1,7.8-3.1c1.9-2.1,3.3-4.6,4.2-7.6
		c0.9-3,1.5-6.1,1.7-9.3c0.2-3.2,0.3-6,0.3-8.3c0-2.3-0.1-5.1-0.3-8.3c-0.2-3.2-0.8-6.3-1.7-9.3c-0.9-3-2.3-5.5-4.2-7.6
		c-1.9-2.1-4.5-3.1-7.8-3.1c-3.4,0-6,1-7.9,3.1c-1.9,2.1-3.2,4.6-4.2,7.6c-0.9,3-1.5,6.1-1.7,9.3C474,357.1,473.9,359.9,473.9,362.2
		z"/>
	<path class="st0" d="M560.3,339.1l-17.6,15.5l-10.5-12.2l28.6-24.2h17.4v87.8h-17.9V339.1z"/>
	<path class="st0" d="M662.1,334.6h-34.8l-0.4,13.5c1.9-0.7,4.5-1,7.8-1c4.5,0,8.6,0.7,12.3,2c3.7,1.3,6.9,3.2,9.6,5.8
		c2.7,2.5,4.8,5.6,6.3,9.2c1.5,3.6,2.2,7.6,2.2,12.1c0,5-0.8,9.4-2.5,13.3c-1.7,3.9-4,7.2-7,9.9c-3,2.7-6.5,4.7-10.6,6.1
		c-4.1,1.4-8.5,2.1-13.3,2.1c-7.6,0-14-1.9-19.1-5.6c-5.1-3.7-8.6-9.3-10.5-16.9l19.5-4.5c0.5,3.1,1.8,5.7,4,7.6
		c2.1,1.9,4.8,2.9,8.1,2.9c4,0,7.1-1.2,9.5-3.7c2.4-2.5,3.5-5.6,3.5-9.4c0-2.9-0.6-5.3-1.8-7.1c-1.2-1.9-2.8-3.3-4.7-4.5
		c-1.9-1.1-4.1-1.9-6.5-2.3c-2.4-0.4-4.8-0.6-7.2-0.6c-3.1,0-6.1,0.3-9.2,0.9c-3.1,0.6-6.1,1.4-9,2.4l1-48.5h53.1V334.6z"/>
</g>
<path class="st0" d="M678.1,386.4l34.1-30.6c1.7-1.6,3.5-3.3,5.2-5.3c1.7-2,2.6-4.3,2.6-6.9c0-3-1.1-5.3-3.2-7
	c-2.2-1.7-4.7-2.5-7.6-2.5c-3.5,0-6.2,1.1-8.1,3.2c-1.9,2.2-3,4.8-3.3,7.9l-18.6-1.4c0.2-4.5,1.2-8.5,2.9-11.8
	c1.7-3.3,3.8-6.1,6.6-8.4s5.9-3.9,9.6-5c3.7-1.1,7.7-1.7,12-1.7c4,0,7.7,0.6,11.2,1.7c3.5,1.1,6.5,2.8,9.1,5c2.6,2.2,4.6,4.9,6,8.2
	c1.4,3.3,2.2,7.2,2.2,11.5c0,2.8-0.3,5.4-0.9,7.6c-0.6,2.3-1.4,4.3-2.4,6.2c-1,1.9-2.3,3.6-3.7,5.1c-1.4,1.6-2.9,3.1-4.6,4.6
	l-26.7,22.9h38.9v16.4h-61.3V386.4z"/>
<path class="st0" d="M749.5,362.2c0-5.2,0.5-10.5,1.4-15.9c0.9-5.4,2.6-10.2,5.1-14.6c2.4-4.4,5.8-8,10-10.7
	c4.2-2.8,9.6-4.2,16.1-4.2c6.5,0,11.9,1.4,16.1,4.2c4.2,2.8,7.5,6.3,10,10.7c2.4,4.4,4.1,9.3,5.1,14.6c0.9,5.4,1.4,10.7,1.4,15.9
	s-0.5,10.5-1.4,15.9c-1,5.4-2.6,10.3-5.1,14.6c-2.4,4.4-5.8,8-10,10.7c-4.2,2.8-9.6,4.2-16.1,4.2c-6.5,0-11.9-1.4-16.1-4.2
	s-7.5-6.3-10-10.7c-2.4-4.4-4.1-9.3-5.1-14.6C750,372.7,749.5,367.4,749.5,362.2z M768.1,362.2c0,2.3,0.1,5.1,0.3,8.3
	c0.2,3.2,0.8,6.3,1.7,9.3c0.9,3,2.3,5.5,4.2,7.6c1.9,2.1,4.5,3.1,7.9,3.1c3.3,0,5.9-1,7.8-3.1c1.9-2.1,3.3-4.6,4.2-7.6
	c0.9-3,1.5-6.1,1.7-9.3c0.2-3.2,0.3-6,0.3-8.3c0-2.3-0.1-5.1-0.3-8.3c-0.2-3.2-0.8-6.3-1.7-9.3c-0.9-3-2.3-5.5-4.2-7.6
	c-1.9-2.1-4.5-3.1-7.8-3.1c-3.4,0-6,1-7.9,3.1c-1.9,2.1-3.2,4.6-4.2,7.6c-0.9,3-1.5,6.1-1.7,9.3
	C768.2,357.1,768.1,359.9,768.1,362.2z"/>
<path class="st0" d="M854.5,339.1l-17.6,15.5l-10.5-12.2l28.6-24.2h17.4v87.8h-17.9V339.1z"/>
<g>
	<path class="st0" d="M74.6,589.8l34.1-30.6c1.7-1.6,3.5-3.3,5.2-5.3c1.7-2,2.6-4.3,2.6-6.9c0-3-1.1-5.3-3.2-7
		c-2.2-1.7-4.7-2.5-7.6-2.5c-3.5,0-6.2,1.1-8.1,3.2c-1.9,2.2-3,4.8-3.3,7.9l-18.6-1.4c0.2-4.5,1.2-8.5,2.9-11.8
		c1.7-3.3,3.8-6.1,6.6-8.4s5.9-3.9,9.6-5c3.7-1.1,7.7-1.7,12-1.7c4,0,7.7,0.6,11.2,1.7c3.5,1.1,6.5,2.8,9.1,5c2.6,2.2,4.6,4.9,6,8.2
		c1.4,3.3,2.2,7.2,2.2,11.5c0,2.8-0.3,5.4-0.9,7.6c-0.6,2.3-1.4,4.3-2.4,6.2c-1,1.9-2.3,3.6-3.7,5.1c-1.4,1.6-2.9,3.1-4.6,4.6
		l-26.7,22.9h38.9v16.4H74.6V589.8z"/>
	<path class="st0" d="M146,565.7c0-5.2,0.5-10.5,1.4-15.9c0.9-5.4,2.6-10.2,5.1-14.6c2.4-4.4,5.8-8,10-10.7
		c4.2-2.8,9.6-4.2,16.1-4.2c6.5,0,11.9,1.4,16.1,4.2c4.2,2.8,7.5,6.3,10,10.7c2.4,4.4,4.1,9.3,5.1,14.6c0.9,5.4,1.4,10.7,1.4,15.9
		s-0.5,10.5-1.4,15.9c-1,5.4-2.6,10.3-5.1,14.6c-2.4,4.4-5.8,8-10,10.7c-4.2,2.8-9.6,4.2-16.1,4.2c-6.5,0-11.9-1.4-16.1-4.2
		s-7.5-6.3-10-10.7c-2.4-4.4-4.1-9.3-5.1-14.6C146.5,576.2,146,570.9,146,565.7z M164.6,565.7c0,2.3,0.1,5.1,0.3,8.3
		c0.2,3.2,0.8,6.3,1.7,9.3c0.9,3,2.3,5.5,4.2,7.6c1.9,2.1,4.5,3.1,7.9,3.1c3.3,0,5.9-1,7.8-3.1c1.9-2.1,3.3-4.6,4.2-7.6
		c0.9-3,1.5-6.1,1.7-9.3c0.2-3.2,0.3-6,0.3-8.3c0-2.3-0.1-5.1-0.3-8.3c-0.2-3.2-0.8-6.3-1.7-9.3c-0.9-3-2.3-5.5-4.2-7.6
		c-1.9-2.1-4.5-3.1-7.8-3.1c-3.4,0-6,1-7.9,3.1c-1.9,2.1-3.2,4.6-4.2,7.6c-0.9,3-1.5,6.1-1.7,9.3
		C164.7,560.6,164.6,563.4,164.6,565.7z"/>
	<path class="st0" d="M251,542.6l-17.6,15.5l-10.5-12.2l28.6-24.2h17.4v87.8H251V542.6z"/>
	<path class="st0" d="M324.3,553.1c1-0.2,2-0.5,3-0.6c1-0.2,2-0.2,3.1-0.2c4.1,0,7.9,0.7,11.3,2.2c3.4,1.5,6.3,3.5,8.7,6.1
		c2.4,2.6,4.3,5.6,5.6,9.1c1.3,3.5,2,7.3,2,11.2c0,4.5-0.8,8.7-2.5,12.3c-1.7,3.7-4,6.8-6.9,9.5c-2.9,2.6-6.4,4.7-10.4,6.1
		c-4,1.4-8.3,2.2-12.8,2.2c-4.6,0-8.9-0.7-12.9-2.2c-4-1.4-7.4-3.5-10.4-6.1c-2.9-2.6-5.3-5.8-6.9-9.5c-1.7-3.7-2.5-7.8-2.5-12.3
		c0-3.1,0.3-6,0.9-8.6c0.6-2.6,1.3-5.1,2.3-7.4c0.9-2.3,2.1-4.5,3.3-6.6c1.3-2.1,2.6-4.3,4-6.5l19.2-30h22.7L324.3,553.1z
		 M339.3,580.2c0-4-1.3-7.3-3.9-9.9s-6-3.9-10.2-3.9s-7.6,1.3-10.2,3.9s-3.9,5.9-3.9,9.9c0,4,1.3,7.3,3.9,9.9s6,3.9,10.2,3.9
		s7.6-1.3,10.2-3.9S339.3,584.1,339.3,580.2z"/>
</g>
<g>
	<path class="st0" d="M383.9,589.8l34.1-30.6c1.7-1.6,3.5-3.3,5.2-5.3c1.7-2,2.6-4.3,2.6-6.9c0-3-1.1-5.3-3.2-7
		c-2.2-1.7-4.7-2.5-7.6-2.5c-3.5,0-6.2,1.1-8.1,3.2c-1.9,2.2-3,4.8-3.3,7.9l-18.6-1.4c0.2-4.5,1.2-8.5,2.9-11.8
		c1.7-3.3,3.8-6.1,6.6-8.4s5.9-3.9,9.6-5c3.7-1.1,7.7-1.7,12-1.7c4,0,7.7,0.6,11.2,1.7c3.5,1.1,6.5,2.8,9.1,5c2.6,2.2,4.6,4.9,6,8.2
		c1.4,3.3,2.2,7.2,2.2,11.5c0,2.8-0.3,5.4-0.9,7.6c-0.6,2.3-1.4,4.3-2.4,6.2c-1,1.9-2.3,3.6-3.7,5.1c-1.4,1.6-2.9,3.1-4.6,4.6
		l-26.7,22.9h38.9v16.4h-61.3V589.8z"/>
	<path class="st0" d="M455.3,565.7c0-5.2,0.5-10.5,1.4-15.9c0.9-5.4,2.6-10.2,5.1-14.6c2.4-4.4,5.8-8,10-10.7
		c4.2-2.8,9.6-4.2,16.1-4.2c6.5,0,11.9,1.4,16.1,4.2c4.2,2.8,7.5,6.3,10,10.7c2.4,4.4,4.1,9.3,5.1,14.6c0.9,5.4,1.4,10.7,1.4,15.9
		s-0.5,10.5-1.4,15.9c-1,5.4-2.6,10.3-5.1,14.6c-2.4,4.4-5.8,8-10,10.7c-4.2,2.8-9.6,4.2-16.1,4.2c-6.5,0-11.9-1.4-16.1-4.2
		s-7.5-6.3-10-10.7c-2.4-4.4-4.1-9.3-5.1-14.6C455.8,576.2,455.3,570.9,455.3,565.7z M473.9,565.7c0,2.3,0.1,5.1,0.3,8.3
		c0.2,3.2,0.8,6.3,1.7,9.3c0.9,3,2.3,5.5,4.2,7.6c1.9,2.1,4.5,3.1,7.9,3.1c3.3,0,5.9-1,7.8-3.1c1.9-2.1,3.3-4.6,4.2-7.6
		c0.9-3,1.5-6.1,1.7-9.3c0.2-3.2,0.3-6,0.3-8.3c0-2.3-0.1-5.1-0.3-8.3c-0.2-3.2-0.8-6.3-1.7-9.3c-0.9-3-2.3-5.5-4.2-7.6
		c-1.9-2.1-4.5-3.1-7.8-3.1c-3.4,0-6,1-7.9,3.1c-1.9,2.1-3.2,4.6-4.2,7.6c-0.9,3-1.5,6.1-1.7,9.3C474,560.6,473.9,563.4,473.9,565.7
		z"/>
	<path class="st0" d="M560.3,542.6l-17.6,15.5l-10.5-12.2l28.6-24.2h17.4v87.8h-17.9V542.6z"/>
	<path class="st0" d="M662.1,538.1h-34.8l-0.4,13.5c1.9-0.7,4.5-1,7.8-1c4.5,0,8.6,0.7,12.3,2c3.7,1.3,6.9,3.2,9.6,5.8
		c2.7,2.5,4.8,5.6,6.3,9.2c1.5,3.6,2.2,7.6,2.2,12.1c0,5-0.8,9.4-2.5,13.3c-1.7,3.9-4,7.2-7,9.9c-3,2.7-6.5,4.7-10.6,6.1
		c-4.1,1.4-8.5,2.1-13.3,2.1c-7.6,0-14-1.9-19.1-5.6c-5.1-3.7-8.6-9.3-10.5-16.9l19.5-4.5c0.5,3.1,1.8,5.7,4,7.6
		c2.1,1.9,4.8,2.9,8.1,2.9c4,0,7.1-1.2,9.5-3.7c2.4-2.5,3.5-5.6,3.5-9.4c0-2.9-0.6-5.3-1.8-7.1c-1.2-1.9-2.8-3.3-4.7-4.5
		c-1.9-1.1-4.1-1.9-6.5-2.3c-2.4-0.4-4.8-0.6-7.2-0.6c-3.1,0-6.1,0.3-9.2,0.9c-3.1,0.6-6.1,1.4-9,2.4l1-48.5h53.1V538.1z"/>
</g>
<path class="st0" d="M678.1,589.8l34.1-30.6c1.7-1.6,3.5-3.3,5.2-5.3c1.7-2,2.6-4.3,2.6-6.9c0-3-1.1-5.3-3.2-7
	c-2.2-1.7-4.7-2.5-7.6-2.5c-3.5,0-6.2,1.1-8.1,3.2c-1.9,2.2-3,4.8-3.3,7.9l-18.6-1.4c0.2-4.5,1.2-8.5,2.9-11.8
	c1.7-3.3,3.8-6.1,6.6-8.4s5.9-3.9,9.6-5c3.7-1.1,7.7-1.7,12-1.7c4,0,7.7,0.6,11.2,1.7c3.5,1.1,6.5,2.8,9.1,5c2.6,2.2,4.6,4.9,6,8.2
	c1.4,3.3,2.2,7.2,2.2,11.5c0,2.8-0.3,5.4-0.9,7.6c-0.6,2.3-1.4,4.3-2.4,6.2c-1,1.9-2.3,3.6-3.7,5.1c-1.4,1.6-2.9,3.1-4.6,4.6
	l-26.7,22.9h38.9v16.4h-61.3V589.8z"/>
<path class="st0" d="M749.5,565.7c0-5.2,0.5-10.5,1.4-15.9c0.9-5.4,2.6-10.2,5.1-14.6c2.4-4.4,5.8-8,10-10.7
	c4.2-2.8,9.6-4.2,16.1-4.2c6.5,0,11.9,1.4,16.1,4.2c4.2,2.8,7.5,6.3,10,10.7c2.4,4.4,4.1,9.3,5.1,14.6c0.9,5.4,1.4,10.7,1.4,15.9
	s-0.5,10.5-1.4,15.9c-1,5.4-2.6,10.3-5.1,14.6c-2.4,4.4-5.8,8-10,10.7c-4.2,2.8-9.6,4.2-16.1,4.2c-6.5,0-11.9-1.4-16.1-4.2
	s-7.5-6.3-10-10.7c-2.4-4.4-4.1-9.3-5.1-14.6C750,576.2,749.5,570.9,749.5,565.7z M768.1,565.7c0,2.3,0.1,5.1,0.3,8.3
	c0.2,3.2,0.8,6.3,1.7,9.3c0.9,3,2.3,5.5,4.2,7.6c1.9,2.1,4.5,3.1,7.9,3.1c3.3,0,5.9-1,7.8-3.1c1.9-2.1,3.3-4.6,4.2-7.6
	c0.9-3,1.5-6.1,1.7-9.3c0.2-3.2,0.3-6,0.3-8.3c0-2.3-0.1-5.1-0.3-8.3c-0.2-3.2-0.8-6.3-1.7-9.3c-0.9-3-2.3-5.5-4.2-7.6
	c-1.9-2.1-4.5-3.1-7.8-3.1c-3.4,0-6,1-7.9,3.1c-1.9,2.1-3.2,4.6-4.2,7.6c-0.9,3-1.5,6.1-1.7,9.3
	C768.2,560.6,768.1,563.4,768.1,565.7z"/>
<path class="st0" d="M854.5,542.6l-17.6,15.5l-10.5-12.2l28.6-24.2h17.4v87.8h-17.9V542.6z"/>
<path class="st0" d="M34,146.2c1-0.2,2-0.5,3-0.6c1-0.2,2-0.2,3.1-0.2c4.1,0,7.9,0.7,11.3,2.2c3.4,1.5,6.3,3.5,8.7,6.1
	c2.4,2.6,4.3,5.6,5.6,9.1c1.3,3.5,2,7.3,2,11.2c0,4.5-0.8,8.7-2.5,12.3c-1.7,3.7-4,6.8-6.9,9.5c-2.9,2.6-6.4,4.7-10.4,6.1
	c-4,1.4-8.3,2.2-12.8,2.2c-4.6,0-8.9-0.7-12.9-2.2c-4-1.4-7.4-3.5-10.4-6.1c-2.9-2.6-5.3-5.8-6.9-9.5c-1.7-3.7-2.5-7.8-2.5-12.3
	c0-3.1,0.3-6,0.9-8.6c0.6-2.6,1.3-5.1,2.3-7.4c0.9-2.3,2.1-4.5,3.3-6.6c1.3-2.1,2.6-4.3,4-6.5l19.2-30h22.7L34,146.2z M49.1,173.2
	c0-4-1.3-7.3-3.9-9.9s-6-3.9-10.2-3.9s-7.6,1.3-10.2,3.9s-3.9,5.9-3.9,9.9c0,4,1.3,7.3,3.9,9.9s6,3.9,10.2,3.9s7.6-1.3,10.2-3.9
	S49.1,177.2,49.1,173.2z"/>
<path class="st0" d="M34,349.7c1-0.2,2-0.5,3-0.6c1-0.2,2-0.2,3.1-0.2c4.1,0,7.9,0.7,11.3,2.2c3.4,1.5,6.3,3.5,8.7,6.1
	c2.4,2.6,4.3,5.6,5.6,9.1c1.3,3.5,2,7.3,2,11.2c0,4.5-0.8,8.7-2.5,12.3c-1.7,3.7-4,6.8-6.9,9.5c-2.9,2.6-6.4,4.7-10.4,6.1
	c-4,1.4-8.3,2.2-12.8,2.2c-4.6,0-8.9-0.7-12.9-2.2c-4-1.4-7.4-3.5-10.4-6.1c-2.9-2.6-5.3-5.8-6.9-9.5c-1.7-3.7-2.5-7.8-2.5-12.3
	c0-3.1,0.3-6,0.9-8.6c0.6-2.6,1.3-5.1,2.3-7.4c0.9-2.3,2.1-4.5,3.3-6.6c1.3-2.1,2.6-4.3,4-6.5l19.2-30h22.7L34,349.7z M49.1,376.7
	c0-4-1.3-7.3-3.9-9.9s-6-3.9-10.2-3.9s-7.6,1.3-10.2,3.9s-3.9,5.9-3.9,9.9c0,4,1.3,7.3,3.9,9.9s6,3.9,10.2,3.9s7.6-1.3,10.2-3.9
	S49.1,380.7,49.1,376.7z"/>
<path class="st0" d="M34,553.1c1-0.2,2-0.5,3-0.6c1-0.2,2-0.2,3.1-0.2c4.1,0,7.9,0.7,11.3,2.2c3.4,1.5,6.3,3.5,8.7,6.1
	c2.4,2.6,4.3,5.6,5.6,9.1c1.3,3.5,2,7.3,2,11.2c0,4.5-0.8,8.7-2.5,12.3c-1.7,3.7-4,6.8-6.9,9.5c-2.9,2.6-6.4,4.7-10.4,6.1
	c-4,1.4-8.3,2.2-12.8,2.2c-4.6,0-8.9-0.7-12.9-2.2c-4-1.4-7.4-3.5-10.4-6.1c-2.9-2.6-5.3-5.8-6.9-9.5c-1.7-3.7-2.5-7.8-2.5-12.3
	c0-3.1,0.3-6,0.9-8.6c0.6-2.6,1.3-5.1,2.3-7.4c0.9-2.3,2.1-4.5,3.3-6.6c1.3-2.1,2.6-4.3,4-6.5l19.2-30h22.7L34,553.1z M49.1,580.2
	c0-4-1.3-7.3-3.9-9.9s-6-3.9-10.2-3.9s-7.6,1.3-10.2,3.9s-3.9,5.9-3.9,9.9c0,4,1.3,7.3,3.9,9.9s6,3.9,10.2,3.9s7.6-1.3,10.2-3.9
	S49.1,584.1,49.1,580.2z"/>
</svg>
