<?xml version="1.0" encoding="utf-8"?>
<!-- Generator: Adobe Illustrator 19.1.0, SVG Export Plug-In . SVG Version: 6.00 Build 0)  -->
<svg version="1.1" id="Layer_1" xmlns="http://www.w3.org/2000/svg" xmlns:xlink="http://www.w3.org/1999/xlink" x="0px" y="0px"
	 viewBox="-194 286.9 221.1 221.1" style="enable-background:new -194 286.9 221.1 221.1;" xml:space="preserve">
<style type="text/css">
	.st0{fill:#F28845;}
	.st1{fill:#020202;}
	.st2{fill:#FFFFFF;}
</style>
<g>
	<path class="st0" d="M-194,397.3c-0.1,60.9,49.1,110.5,109.9,110.7c61.4,0.2,111.2-49.3,111.3-110.4c0-61.1-49.5-110.7-110.6-110.7
		C-144.6,286.9-193.9,336-194,397.3z"/>
	<path class="st1" d="M-194,397.3c0.1-61.3,49.4-110.4,110.6-110.4c61.1,0,110.5,49.6,110.5,110.7C27,458.7-22.8,508.2-84.2,508
		C-144.9,507.8-194.1,458.2-194,397.3z M-92.5,391.9c2.8-3.7,7-7.2,8.6-11.7c4.7-12.9-2.8-26.1-16-29.6c-3.7-1-7.6-1.3-11.4-1.3
		c-13.7-0.2-27.3-0.1-41,0c-1.4,0-2.9,0.2-4.3,0.3c0,30.9,0,61.3,0,91.8c17.5,0,34.7,0.9,51.7-0.2c19-1.3,28.7-15,24.1-36
		C-82.2,398-86.2,393.1-92.5,391.9z M-8.8,412.8c3.2-14.3-3.7-30.7-15.2-36.5c-20.6-10.6-45.1,0.5-50.6,22.9
		c-5.1,20.6,4.6,38.7,23.2,43.1c9.4,2.2,18.9,2,28-1.6c9.6-3.8,14.7-11.5,14.2-21.3c-0.6-0.1-1.2-0.3-1.9-0.3c-4.5,0-9,0-13.3,0
		c-4,8.8-11.4,11.9-21.1,9.2c-7.1-2-10.8-7.4-10-15.3C-39.9,412.8-24.3,412.8-8.8,412.8z M-59.8,355.1c0,3.8,0,7.2,0,10.7
		c12.6,0,24.9,0,37.4,0c0-3.7,0-7.1,0-10.7C-34.9,355.1-47.2,355.1-59.8,355.1z"/>
	<path class="st2" d="M-92.5,391.9c6.3,1.1,10.3,6.1,11.9,13.1c4.6,21-5.2,34.7-24.1,36c-17,1.2-34.2,0.2-51.7,0.2
		c0-30.5,0-60.9,0-91.8c1.4-0.1,2.8-0.3,4.3-0.3c13.7,0,27.3-0.1,41,0c3.8,0,7.7,0.4,11.4,1.3c13.2,3.5,20.7,16.7,16,29.6
		C-85.5,384.7-89.6,388.2-92.5,391.9z M-135.5,425c9.4,0,18.2,0.2,27-0.1c5.8-0.2,9.1-4.3,9.5-10.8c0.4-6.8-2.7-12.8-8-13.1
		c-9.4-0.6-18.8-0.2-28.4-0.2C-135.5,409-135.5,416.8-135.5,425z M-135.4,386.2c9,0,17.5,0.3,26-0.2c2.1-0.1,5.4-2.3,5.9-4.2
		c1-3.5,1-7.6,0.3-11.2c-0.4-1.9-3.2-4.4-5.1-4.5c-9-0.5-17.9-0.2-27.1-0.2C-135.4,372.8-135.4,379.2-135.4,386.2z"/>
	<path class="st2" d="M-8.8,412.8c-15.5,0-31.1,0-46.6,0c-0.8,7.9,2.9,13.3,10,15.3c9.7,2.7,17.1-0.4,21.1-9.2c4.4,0,8.9,0,13.3,0
		c0.6,0,1.3,0.2,1.9,0.3c0.5,9.8-4.7,17.6-14.2,21.3c-9.1,3.6-18.6,3.9-28,1.6c-18.6-4.4-28.3-22.5-23.2-43.1
		c5.5-22.4,30-33.5,50.6-22.9C-12.5,382.2-5.6,398.6-8.8,412.8z M-26.2,400.4c-1-9.7-6-14.4-14.6-14c-8.3,0.4-14.4,6.2-14.5,14
		C-45.8,400.4-36.2,400.4-26.2,400.4z"/>
	<path class="st2" d="M-59.8,355.1c12.6,0,24.9,0,37.4,0c0,3.7,0,7.1,0,10.7c-12.5,0-24.8,0-37.4,0
		C-59.8,362.3-59.8,358.9-59.8,355.1z"/>
	<path class="st1" d="M-135.5,425c0-8.3,0-16,0-24.1c9.6,0,19-0.4,28.4,0.2c5.3,0.3,8.5,6.3,8,13.1c-0.4,6.5-3.7,10.6-9.5,10.8
		C-117.3,425.3-126.1,425-135.5,425z"/>
	<path class="st1" d="M-135.4,386.2c0-7,0-13.5,0-20.3c9.2,0,18.2-0.3,27.1,0.2c1.9,0.1,4.7,2.7,5.1,4.5c0.7,3.6,0.7,7.7-0.3,11.2
		c-0.5,1.9-3.8,4-5.9,4.2C-117.9,386.5-126.4,386.2-135.4,386.2z"/>
	<path class="st1" d="M-26.2,400.4c-9.9,0-19.5,0-29.2,0c0.1-7.8,6.2-13.6,14.5-14C-32.2,386-27.2,390.6-26.2,400.4z"/>
</g>
</svg>
