<?xml version="1.0" encoding="utf-8"?>
<!-- Generator: Adobe Illustrator 19.1.0, SVG Export Plug-In . SVG Version: 6.00 Build 0)  -->
<svg version="1.1" id="Layer_1" xmlns="http://www.w3.org/2000/svg" xmlns:xlink="http://www.w3.org/1999/xlink" x="0px" y="0px"
	 viewBox="-194 286.9 221.1 221.1" style="enable-background:new -194 286.9 221.1 221.1;" xml:space="preserve">
<style type="text/css">
	.st0{fill:#FFFFFF;}
</style>
<path d="M-194,397.3c0.1-61.3,49.4-110.4,110.6-110.4c61.1,0,110.5,49.6,110.5,110.7C27,458.7-22.8,508.2-84.2,508
	C-144.9,507.8-194.1,458.2-194,397.3z"/>
<path class="st0" d="M-112.8,393.7c-10.4,0-21,0.1-31.6,0c-4.7-0.1-5.6,2.5-5.5,6.1c0.2,11.6-0.1,23.3,0.6,34.9
	c0.8,14.4,11.1,23.6,26.6,24.1c8.8,0.3,17.6,0.1,26.4,0.1c17.6,0,35.2,0.2,52.8-0.1c13.8-0.2,25.4-7,26.6-18
	c1.5-15.3,0.4-30.8,0.4-46.7c-11.3,0-23.1,0-34.7,0c-6.6,21.9-15.9,30.6-31.8,30.1C-98.2,423.7-107.9,414-112.8,393.7z M-97,333.1
	c0,8.9-0.1,17.3,0.1,25.7c0.1,4.5-1.9,5.4-6.8,3.9c0-8.4,0.1-16.8-0.1-25.3c0-0.2,0-0.3-0.1-0.5c-0.5-2.5-4.2-2.5-4.7-0.1
	c0,0.1,0,0.2,0,0.4c-0.3,7.3,0,14.6-0.3,21.8c0,0.2-0.1,0.5-0.1,0.7c-0.8,2.2-3.9,2.5-5.2,0.6c-0.3-0.4-0.5-0.9-0.6-1.4
	c-0.4-7.3,0-14.6-0.3-21.8c0-0.5-0.3-1.1-0.6-1.6c-0.9-1.5-3.1-1.5-4.1,0c-0.3,0.5-0.6,1-0.6,1.6c-0.3,7-0.3,14.1-0.1,21.1
	c0.1,4.6-1.5,6.4-7.2,4.3V334c-21.8,4.2-23.9,20.1-20.4,48.1c11.3,0,22.6,0.3,33.9-0.2c3.3-0.1,7.4-1.8,9.7-4
	c13.1-12.7,32.5-12.7,45.2,0.4c1.5,1.5,3.4,3.6,5.2,3.7c12.6,0.3,25.2,0.2,37.8,0.2c0.4-2.2,0.7-3.4,0.7-4.6
	c0-7.5,0.2-15.1-0.4-22.6c-0.9-11.2-9.6-21-21.5-21.6C-56.9,332.4-76.6,333.1-97,333.1z"/>
</svg>
